# xmcd CD database file
#
# Track frame offsets:
#	150
#	20482
#	41432
#
# Disc length: 821 seconds
#
# Revision: 0
# Processed by: cddbd v1.5.1PL0 Copyright (c) Steve Scherf et al.
# Submitted via: CDex 1.51
#
DISCID=1a033303
DTITLE=ZIGGY - Silent Eveを待ちながら
DYEAR=1996
DGENRE=Hard Rock
TTITLE0=Silent Eveを待ちながら
TTITLE1=無力なViolence
TTITLE2=Silent Eveを待ちながら (Instrumental)
EXTD=YEAR: 1996
EXTT0=
EXTT1=
EXTT2=
PLAYORDER=
